<svg width="62" height="9" viewBox="0 0 62 9" fill="none" xmlns="http://www.w3.org/2000/svg">
<g clip-path="url(#clip0_1_2)">
<path d="M13.8806 8.13548C13.1774 8.13548 12.5613 7.99355 12.0323 7.70968C11.5097 7.41935 11.1065 7.0129 10.8226 6.49032C10.5387 5.96774 10.3968 5.35161 10.3968 4.64194C10.3968 3.90645 10.5452 3.26774 10.8419 2.72581C11.1452 2.18387 11.571 1.76452 12.1194 1.46774C12.6677 1.16452 13.3097 1.0129 14.0452 1.0129C14.4129 1.0129 14.7258 1.04516 14.9839 1.10968C15.2484 1.16774 15.471 1.24194 15.6516 1.33226C15.8323 1.41613 15.9839 1.49032 16.1065 1.55484C16.2355 1.6129 16.3484 1.64194 16.4452 1.64194C16.5484 1.64194 16.629 1.59677 16.6871 1.50645C16.7452 1.41613 16.7871 1.26774 16.8129 1.06129H17.2C17.1871 1.3129 17.1774 1.56129 17.171 1.80645C17.171 2.04516 17.1677 2.31613 17.1613 2.61935C17.1613 2.92258 17.1613 3.29032 17.1613 3.72258H16.7742C16.729 3.27097 16.6065 2.88065 16.4065 2.55161C16.2129 2.22258 15.9613 1.96774 15.6516 1.7871C15.3419 1.60645 14.9839 1.51613 14.5774 1.51613C14.1258 1.51613 13.7387 1.63871 13.4161 1.88387C13.0935 2.12903 12.8484 2.4871 12.6806 2.95806C12.5129 3.42258 12.429 3.99355 12.429 4.67097C12.429 5.62581 12.5968 6.37419 12.9323 6.91613C13.2677 7.45161 13.7355 7.71935 14.3355 7.71935C14.529 7.71935 14.6871 7.69355 14.8097 7.64194C14.9387 7.59032 15.0355 7.51613 15.1 7.41935C15.1645 7.31613 15.1968 7.19032 15.1968 7.04194V5.94839C15.1968 5.71613 15.1742 5.54194 15.129 5.42581C15.0839 5.30323 14.9968 5.21935 14.8677 5.17419C14.7452 5.12258 14.5581 5.09032 14.3065 5.07742V4.70968C14.4419 4.71613 14.6548 4.72258 14.9452 4.72903C15.2419 4.73548 15.6097 4.73871 16.0484 4.73871C16.4484 4.73871 16.7871 4.73548 17.0645 4.72903C17.3419 4.72258 17.5581 4.71613 17.7129 4.70968V5.07742C17.5581 5.09032 17.4387 5.11935 17.3548 5.16452C17.2774 5.20968 17.2258 5.29032 17.2 5.40645C17.1742 5.51613 17.1613 5.68387 17.1613 5.90968V8.05806H16.7742C16.7484 7.86452 16.7032 7.72903 16.6387 7.65161C16.5742 7.56774 16.4806 7.52581 16.3581 7.52581C16.2355 7.52581 16.1032 7.55484 15.9613 7.6129C15.8194 7.67097 15.6548 7.74194 15.4677 7.82581C15.2806 7.90968 15.0581 7.98065 14.8 8.03871C14.5419 8.10323 14.2355 8.13548 13.8806 8.13548ZM18.2851 8V7.62258C18.5754 7.61613 18.7722 7.56129 18.8754 7.45806C18.9851 7.35484 19.0399 7.17742 19.0399 6.92581V4.20645C19.0399 3.90968 18.9819 3.69677 18.8657 3.56774C18.7496 3.43226 18.556 3.36129 18.2851 3.35484V2.97742C18.5173 2.98387 18.6883 2.99032 18.798 2.99677C18.9141 3.00323 19.0496 3.00645 19.2044 3.00645C19.8238 3.00645 20.3496 2.96129 20.7819 2.87097V6.82903C20.7819 7.11935 20.856 7.32258 21.0044 7.43871C21.1593 7.55484 21.4335 7.61613 21.827 7.62258V8C21.7044 7.99355 21.5367 7.99032 21.3238 7.99032C21.1173 7.98387 20.8915 7.97742 20.6464 7.97097C20.4077 7.96452 20.1754 7.96129 19.9496 7.96129C19.6077 7.96129 19.2819 7.96774 18.9722 7.98065C18.669 7.9871 18.4399 7.99355 18.2851 8ZM22.2044 5.00968C22.0173 5.00968 21.869 4.96129 21.7593 4.86452C21.6496 4.76129 21.5948 4.62581 21.5948 4.45806C21.5948 4.36129 21.6109 4.27097 21.6431 4.1871C21.6754 4.10323 21.7077 4.02258 21.7399 3.94516C21.7722 3.86774 21.7883 3.79355 21.7883 3.72258C21.7883 3.57419 21.7044 3.5 21.5367 3.5C21.4335 3.5 21.3302 3.52581 21.227 3.57742C21.1238 3.62903 21.0302 3.70323 20.9464 3.8C20.8625 3.89032 20.7948 4.00323 20.7431 4.13871L20.7335 3.7129C20.869 3.44839 21.0625 3.23871 21.3141 3.08387C21.5657 2.92258 21.8335 2.84194 22.1173 2.84194C22.427 2.84194 22.669 2.93548 22.8431 3.12258C23.0173 3.30968 23.1044 3.57097 23.1044 3.90645C23.1044 4.24194 23.0206 4.50968 22.8528 4.70968C22.6915 4.90968 22.4754 5.00968 22.2044 5.00968ZM25.8861 8.13548C25.3829 8.13548 24.9474 8.03226 24.5796 7.82581C24.2119 7.6129 23.928 7.30968 23.728 6.91613C23.528 6.52258 23.428 6.05161 23.428 5.50323C23.428 4.91613 23.5377 4.42581 23.7571 4.03226C23.9829 3.63871 24.2925 3.34194 24.6861 3.14194C25.0861 2.94194 25.5442 2.84194 26.0603 2.84194C26.5442 2.84194 26.9442 2.92581 27.2603 3.09355C27.5829 3.26129 27.8216 3.51935 27.9764 3.86774C28.1377 4.21613 28.2151 4.66452 28.2087 5.2129H24.7151L24.6958 4.84516H26.7571C26.7635 4.52903 26.7409 4.25161 26.6893 4.0129C26.6442 3.76774 26.5667 3.57742 26.4571 3.44194C26.3538 3.3 26.2151 3.22903 26.0409 3.22903C25.8216 3.22903 25.6377 3.36129 25.4893 3.62581C25.3409 3.89032 25.2538 4.31613 25.228 4.90323L25.2474 4.95161C25.2409 5.00323 25.2377 5.05806 25.2377 5.11613C25.2377 5.17419 25.2377 5.25161 25.2377 5.34839C25.2377 5.95484 25.3474 6.43226 25.5667 6.78065C25.7925 7.12258 26.1151 7.29355 26.5345 7.29355C26.8506 7.29355 27.1151 7.21613 27.328 7.06129C27.5474 6.90645 27.7377 6.66774 27.899 6.34516L28.2474 6.52903C28.0409 7.06452 27.7377 7.46774 27.3377 7.73871C26.9442 8.00323 26.4603 8.13548 25.8861 8.13548ZM31.4759 8.13548C30.9727 8.13548 30.5372 8.03226 30.1695 7.82581C29.8017 7.6129 29.5179 7.30968 29.3179 6.91613C29.1179 6.52258 29.0179 6.05161 29.0179 5.50323C29.0179 4.91613 29.1275 4.42581 29.3469 4.03226C29.5727 3.63871 29.8824 3.34194 30.2759 3.14194C30.6759 2.94194 31.134 2.84194 31.6501 2.84194C32.134 2.84194 32.534 2.92581 32.8501 3.09355C33.1727 3.26129 33.4114 3.51935 33.5663 3.86774C33.7275 4.21613 33.805 4.66452 33.7985 5.2129H30.305L30.2856 4.84516H32.3469C32.3534 4.52903 32.3308 4.25161 32.2792 4.0129C32.234 3.76774 32.1566 3.57742 32.0469 3.44194C31.9437 3.3 31.805 3.22903 31.6308 3.22903C31.4114 3.22903 31.2275 3.36129 31.0792 3.62581C30.9308 3.89032 30.8437 4.31613 30.8179 4.90323L30.8372 4.95161C30.8308 5.00323 30.8275 5.05806 30.8275 5.11613C30.8275 5.17419 30.8275 5.25161 30.8275 5.34839C30.8275 5.95484 30.9372 6.43226 31.1566 6.78065C31.3824 7.12258 31.705 7.29355 32.1243 7.29355C32.4404 7.29355 32.705 7.21613 32.9179 7.06129C33.1372 6.90645 33.3275 6.66774 33.4888 6.34516L33.8372 6.52903C33.6308 7.06452 33.3275 7.46774 32.9275 7.73871C32.534 8.00323 32.0501 8.13548 31.4759 8.13548ZM37.7172 8V7.62258C37.9107 7.61613 38.043 7.56452 38.114 7.46774C38.1849 7.36452 38.2204 7.18387 38.2204 6.92581V4.38065C38.2204 4.11613 38.1623 3.91613 38.0462 3.78065C37.9365 3.64516 37.7753 3.57742 37.5623 3.57742C37.4011 3.57742 37.2527 3.62581 37.1172 3.72258C36.9882 3.8129 36.8785 3.94839 36.7882 4.12903V3.7129C36.9494 3.43548 37.1623 3.22258 37.4269 3.07419C37.6914 2.91935 38.0011 2.84194 38.3559 2.84194C38.8785 2.84194 39.2753 2.99032 39.5462 3.2871C39.8236 3.58387 39.9623 4.00968 39.9623 4.56452V6.92581C39.9623 7.18387 40.0172 7.36452 40.1269 7.46774C40.2365 7.56452 40.4301 7.61613 40.7075 7.62258V8C40.6107 7.99355 40.4753 7.99032 40.3011 7.99032C40.1333 7.98387 39.9462 7.97742 39.7398 7.97097C39.5398 7.96452 39.3398 7.96129 39.1398 7.96129C38.8688 7.96129 38.5978 7.96774 38.3269 7.98065C38.0559 7.9871 37.8527 7.99355 37.7172 8ZM34.3398 8V7.62258C34.6236 7.61613 34.8204 7.56452 34.9301 7.46774C35.0398 7.36452 35.0946 7.18387 35.0946 6.92581V4.20645C35.0946 3.90323 35.0365 3.6871 34.9204 3.55806C34.8107 3.42903 34.6172 3.36129 34.3398 3.35484V2.97742C34.4882 2.98387 34.6269 2.99032 34.7559 2.99677C34.8914 3.00323 35.0301 3.00645 35.172 3.00645C35.5011 3.00645 35.8011 2.99677 36.072 2.97742C36.3494 2.95161 36.6043 2.91613 36.8365 2.87097V6.92581C36.8365 7.18387 36.872 7.36452 36.943 7.46774C37.014 7.56452 37.1462 7.61613 37.3398 7.62258V8C37.2043 7.99355 37.0107 7.9871 36.7591 7.98065C36.514 7.96774 36.2591 7.96129 35.9946 7.96129C35.6978 7.96129 35.3914 7.96774 35.0753 7.98065C34.7591 7.9871 34.514 7.99355 34.3398 8ZM41.1417 8V7.62258C41.4127 7.60968 41.6127 7.58387 41.7417 7.54516C41.8707 7.50645 41.9546 7.42903 41.9933 7.3129C42.0385 7.19677 42.0611 7.02258 42.0611 6.79032V2.35806C42.0611 2.12581 42.0385 1.95484 41.9933 1.84516C41.9482 1.72903 41.8611 1.64839 41.732 1.60323C41.603 1.55806 41.4062 1.53226 41.1417 1.52581V1.14839C41.2707 1.15484 41.4901 1.16129 41.7998 1.16774C42.1159 1.16774 42.5127 1.16774 42.9901 1.16774C43.4546 1.16774 43.8127 1.16452 44.0643 1.15806C44.3159 1.15161 44.5256 1.14839 44.6933 1.14839C45.6159 1.14839 46.2998 1.28065 46.7449 1.54516C47.1901 1.80323 47.4127 2.20645 47.4127 2.75484C47.4127 3.20645 47.2288 3.56774 46.8611 3.83871C46.4933 4.10968 45.9385 4.29677 45.1965 4.4V4.40968C46.0998 4.44194 46.7836 4.60968 47.2482 4.9129C47.7127 5.20968 47.9449 5.62903 47.9449 6.17097C47.9449 6.74516 47.6772 7.19355 47.1417 7.51613C46.6127 7.83871 45.874 8 44.9256 8C44.803 8 44.6643 7.99677 44.5095 7.99032C44.3611 7.98387 44.1675 7.98065 43.9288 7.98065C43.6965 7.97419 43.3836 7.97097 42.9901 7.97097C42.5191 7.97097 42.1256 7.97419 41.8095 7.98065C41.4998 7.98065 41.2772 7.9871 41.1417 8ZM44.703 7.60323C45.0901 7.60323 45.3869 7.48065 45.5933 7.23548C45.8062 6.99032 45.9127 6.64516 45.9127 6.2C45.9127 5.69032 45.7804 5.3 45.5159 5.02903C45.2514 4.75806 44.8675 4.62258 44.3643 4.62258H43.4643V4.26452H44.3836C44.7643 4.26452 45.0643 4.13548 45.2836 3.87742C45.503 3.61935 45.6127 3.26774 45.6127 2.82258C45.6127 2.42903 45.5159 2.11613 45.3224 1.88387C45.1353 1.64516 44.8675 1.52581 44.5191 1.52581H44.0256V6.79032C44.0256 7.00323 44.0449 7.17097 44.0836 7.29355C44.1224 7.40968 44.1901 7.49032 44.2869 7.53548C44.3901 7.58065 44.5288 7.60323 44.703 7.60323ZM48.4726 8V7.62258C48.7565 7.61613 48.9532 7.56452 49.0629 7.46774C49.1726 7.37097 49.2274 7.19032 49.2274 6.92581V4.20645C49.2274 3.92258 49.1726 3.7129 49.0629 3.57742C48.9597 3.43548 48.7629 3.36129 48.4726 3.35484V2.97742C48.6081 2.98387 48.7403 2.99032 48.8694 2.99677C49.0048 3.00323 49.1371 3.00645 49.2661 3.00645C49.5887 3.00645 49.8919 2.99677 50.1758 2.97742C50.4597 2.95161 50.7242 2.91613 50.9694 2.87097V6.92581C50.9694 7.19677 51.0242 7.38065 51.1339 7.47742C51.25 7.56774 51.4435 7.61613 51.7145 7.62258V8C51.6113 7.99355 51.4758 7.99032 51.3081 7.99032C51.1403 7.98387 50.9532 7.97742 50.7468 7.97097C50.5468 7.96452 50.3403 7.96129 50.1274 7.96129C49.8242 7.96129 49.5113 7.96774 49.1887 7.98065C48.8726 7.9871 48.6339 7.99355 48.4726 8ZM50.05 2.13548C49.8048 2.13548 49.5823 2.06452 49.3823 1.92258C49.1823 1.77419 49.0823 1.55484 49.0823 1.26452C49.0823 0.974194 49.1823 0.758065 49.3823 0.616129C49.5823 0.467742 49.8048 0.393548 50.05 0.393548C50.2952 0.393548 50.5177 0.467742 50.7177 0.616129C50.9177 0.758065 51.0177 0.974194 51.0177 1.26452C51.0177 1.55484 50.9145 1.77419 50.7081 1.92258C50.5081 2.06452 50.2887 2.13548 50.05 2.13548ZM54.4107 8.13548C53.8881 8.13548 53.4913 7.99677 53.2203 7.71935C52.9494 7.44194 52.8139 7.02903 52.8139 6.48065V3.35484H51.8655V2.97742H52.8139V1.64194C53.1494 1.64194 53.459 1.62258 53.7429 1.58387C54.0268 1.54516 54.2978 1.4871 54.5558 1.40968V2.97742H55.7752V3.35484H54.5558V6.84839C54.5558 7.03548 54.5945 7.17419 54.672 7.26452C54.7558 7.34839 54.872 7.39032 55.0203 7.39032C55.1623 7.39032 55.2849 7.34839 55.3881 7.26452C55.4913 7.18065 55.5913 7.04839 55.6881 6.86774L55.9881 7.04194C55.8203 7.42903 55.6139 7.70968 55.3687 7.88387C55.1236 8.05161 54.8042 8.13548 54.4107 8.13548ZM58.7103 8.13548C58.2071 8.13548 57.7716 8.03226 57.4039 7.82581C57.0361 7.6129 56.7522 7.30968 56.5522 6.91613C56.3522 6.52258 56.2522 6.05161 56.2522 5.50323C56.2522 4.91613 56.3619 4.42581 56.5813 4.03226C56.8071 3.63871 57.1168 3.34194 57.5103 3.14194C57.9103 2.94194 58.3684 2.84194 58.8845 2.84194C59.3684 2.84194 59.7684 2.92581 60.0845 3.09355C60.4071 3.26129 60.6458 3.51935 60.8006 3.86774C60.9619 4.21613 61.0393 4.66452 61.0329 5.2129H57.5393L57.52 4.84516H59.5813C59.5877 4.52903 59.5651 4.25161 59.5135 4.0129C59.4684 3.76774 59.391 3.57742 59.2813 3.44194C59.178 3.3 59.0393 3.22903 58.8651 3.22903C58.6458 3.22903 58.4619 3.36129 58.3135 3.62581C58.1651 3.89032 58.078 4.31613 58.0522 4.90323L58.0716 4.95161C58.0651 5.00323 58.0619 5.05806 58.0619 5.11613C58.0619 5.17419 58.0619 5.25161 58.0619 5.34839C58.0619 5.95484 58.1716 6.43226 58.391 6.78065C58.6168 7.12258 58.9393 7.29355 59.3587 7.29355C59.6748 7.29355 59.9393 7.21613 60.1522 7.06129C60.3716 6.90645 60.5619 6.66774 60.7232 6.34516L61.0716 6.52903C60.8651 7.06452 60.5619 7.46774 60.1619 7.73871C59.7684 8.00323 59.2845 8.13548 58.7103 8.13548Z" fill="black"/>
<path d="M5.09021 5.89146L4.70125 5.74416C4.80542 5.46916 4.9825 5.17083 5.26167 4.86062L5.57146 5.13937C5.325 5.41333 5.17542 5.66646 5.09021 5.89146Z" fill="black"/>
<path fill-rule="evenodd" clip-rule="evenodd" d="M3.24229 1.45833C2.09062 1.45833 1.25 2.63333 1.25 3.90083C1.25 6.73 5 8.54167 5 8.54167C5 8.54167 8.75 6.61333 8.75 3.90083C8.75 2.63375 7.90937 1.45833 6.75792 1.45833C5.95875 1.45833 5.36562 1.98562 5 2.73354C4.63396 1.98562 4.04125 1.45833 3.24229 1.45833ZM3.54167 5.19979C3.54167 5.78458 4.19625 5.97125 4.67521 5.81583C4.44646 6.49312 4.65896 7.02083 4.84812 7.225L5.15375 6.94167C5.07792 6.86 4.90375 6.52208 5.04771 6.02042C5.29917 6.48646 6.45833 6.54521 6.45833 5.66625V3.33333C5.85792 3.84146 5.21646 4.04229 4.68854 4.20771C4.02562 4.41521 3.54167 4.56667 3.54167 5.19979Z" fill="black"/>
</g>
<defs>
<clipPath id="clip0_1_2">
<rect width="62" height="9" fill="white"/>
</clipPath>
</defs>
</svg>
